PathFileType	4	(X/Y/Z)	RBDS012\RBDS012runT35.trc
DataRate	CameraRate	NumFrames	NumMarkers	Units	OrigDataRate	OrigDataStartFrame	OrigNumFrames
150.000000	150.000000	5	33	mm	150.000000	3937	4500
Frame#	Time	L.ASIS			L.Heel.Bottom			L.Heel.Lateral			L.Heel.Top			L.Iliac.Crest			L.MT1			L.MT5			L.PSIS			L.Shank.Bottom.Lateral			L.Shank.Bottom.Medial			L.Shank.Top.Lateral			L.Shank.Top.Medial			L.Thigh.Bottom.Lateral			L.Thigh.Bottom.Medial			L.Thigh.Top.Lateral			L.Thigh.Top.Medial			R.ASIS			R.ASY			R.Heel.Bottom			R.Heel.Lateral			R.Heel.Top			R.Iliac.Crest			R.MT1			R.MT5			R.PSIS			R.Shank.Bottom.Lateral			R.Shank.Bottom.Medial			R.Shank.Top.Lateral			R.Shank.Top.Medial			R.Thigh.Bottom.Lateral			R.Thigh.Bottom.Medial			R.Thigh.Top.Lateral			R.Thigh.Top.Medial			
		X1	Y1	Z1	X2	Y2	Z2	X3	Y3	Z3	X4	Y4	Z4	X5	Y5	Z5	X6	Y6	Z6	X7	Y7	Z7	X8	Y8	Z8	X9	Y9	Z9	X10	Y10	Z10	X11	Y11	Z11	X12	Y12	Z12	X13	Y13	Z13	X14	Y14	Z14	X15	Y15	Z15	X16	Y16	Z16	X17	Y17	Z17	X18	Y18	Z18	X19	Y19	Z19	X20	Y20	Z20	X21	Y21	Z21	X22	Y22	Z22	X23	Y23	Z23	X24	Y24	Z24	X25	Y25	Z25	X26	Y26	Z26	X27	Y27	Z27	X28	Y28	Z28	X29	Y29	Z29	X30	Y30	Z30	X31	Y31	Z31	X32	Y32	Z32	X33	Y33	Z33	

3938	26.24666666666667	2202.107088610055	1031.7898192594	874.1278748561992	2315.400603192946	43.06989557462646	950.1764774711088	2335.186107489002	61.83672937192208	899.7981535751632	2307.587117462923	93.26122294987731	945.8072954856012	2153.529658545974	1109.359564151216	830.6702127622655	2524.285352880827	130.3263357208133	965.2578428338879	2489.936796135482	113.9932862508616	854.2680175388872	2046.27721575904	1090.659344724459	957.1040079240011	2347.948946882794	213.341312098544	880.5843572779669	2307.64504310784	210.4022987631676	918.454230640764	2326.310816326905	289.1406133568017	864.3182791825225	2288.209053415996	287.5394495172806	902.5250275855338	2293.435832138658	675.6829094504557	833.1043414487115	2236.701088037208	639.9411244904127	860.829785089585	2227.21663860764	762.6419871082525	818.1875320577399	2174.329672375031	730.4598064678873	846.8394605060899	2216.358101901987	1015.19465920463	1129.951873627272	1611.149065719832	202.5076893195045	1078.460595299415	1474.453666713977	342.1952184783878	1025.935500271161	1491.477044989665	336.447773739748	1068.102604797251	1523.309853685633	355.890530698507	1033.390195620269	2201.878977696331	1088.17032328207	1147.392528389578	1593.314886164166	148.8043847090123	1031.110129186317	1554.228745538931	184.647732482616	1136.524216432263	2059.174990659746	1088.685768337962	1063.780112874313	1624.619253479937	365.9246001567023	1104.388503501604	1608.549421484082	397.3649159092707	1067.416301585811	1686.189402427143	421.6841608466596	1123.023348950222	1663.865819082891	453.4298276099351	1086.230633716443	1961.974657109203	658.1685062936884	1153.155934450469	1910.715448744454	685.6280312606326	1107.862857459704	1998.903822687407	760.4665330876343	1170.750737348043	1950.945944822631	786.9769194416807	1127.907547546354	
3939	26.25333333333333	2202.392035136767	1029.584103474386	873.9483740609115	2330.665674596412	36.58137268129824	949.1494987867762	2349.938602505076	56.02364664521131	898.7962605284616	2321.149991444543	86.58008085116934	944.7676617005694	2154.566754507619	1107.371918804783	830.6746957005872	2536.781099984187	131.642077922839	964.3501646790052	2503.082134359013	113.6044405647651	853.4088556284416	2047.243134568951	1089.652220676413	956.8596265441134	2356.600056846567	208.3954453110805	879.7390403063841	2316.541892860324	203.6630038029398	917.8203484431409	2331.799897241452	283.4328532671786	863.8031026476107	2293.883807258548	280.1033221587507	902.1617055890583	2289.636703173324	669.3039583702118	832.7894085457696	2232.457608369905	634.8187373057258	861.4253733064268	2224.758783720473	757.1641655167158	817.2339198772908	2171.463026147191	726.1834436718874	846.6752029536815	2217.719439633427	1015.120919442604	1129.663152226581	1599.278832591658	217.5736639779907	1078.833752684654	1468.908951425676	361.6919991435507	1021.820707080238	1485.255388528978	356.013271503729	1064.413567898997	1518.060429984136	373.4919390500306	1029.620844096956	2202.345431823564	1088.871426397715	1147.158243705799	1579.82568040069	163.7754698898074	1032.369317467354	1541.122031283585	203.2775819851937	1136.807368954153	2060.732331917426	1088.804412623699	1063.568444412026	1619.85559539166	378.9218251154923	1102.77247904397	1605.652807976695	411.2436166778484	1065.808941011599	1684.162833237826	431.3835727595355	1121.676344526349	1663.728623610269	464.3136841596086	1084.836497162391	1967.076923136142	655.16686184438	1153.495173024937	1915.438174831155	682.1100674765133	1108.301855375465	2002.898949096564	757.7866813118189	1171.023859591876	1954.425178420787	783.8469837927687	1128.449095439259	
3940	26.26	2202.460222069529	1026.707946672649	873.7262299405286	2341.012458554563	31.60667355000685	948.4937467112521	2360.119329202482	51.3244356789517	898.2149825796712	2330.598875063805	81.39667613598729	944.0986925186698	2155.317528866825	1104.725577471691	830.618046878009	2545.155637860541	131.3338961584377	964.2349434008644	2512.152589485556	111.8697682310452	853.314940078356	2047.904046406475	1087.894048846933	956.5490317508833	2362.39744985573	203.6554540543758	879.2077413355323	2322.560802990323	197.5395179019988	917.4549663601779	2335.186306384876	278.0601312559241	863.5522490142117	2297.44188195561	273.3868833803129	902.0294999043307	2286.484373621716	663.4423808114916	832.5201177829872	2228.899315544153	629.9986266214654	861.8094944692366	2222.722034434968	751.9944551451363	816.2457206136982	2169.081506778738	722.0338361964774	846.3271792802227	2218.97720432543	1014.68473377868	1129.43837890506	1588.655570716837	233.010019323138	1078.62575139912	1465.318320821418	382.0973398810118	1018.672910759985	1481.138543388948	376.1902965716216	1061.566772679359	1514.732520780127	391.6966608271337	1026.581818366212	2202.53214552545	1089.26985703655	1147.028862418594	1567.024889372854	179.6635245667582	1032.837094921287	1529.698382561195	222.2901790136949	1136.703355651747	2062.050726729184	1088.223763943741	1063.23155220806	1616.811422849028	391.877336228474	1101.352591067675	1604.454830630279	425.1222209453659	1064.543939247044	1683.805667888787	440.7206295269265	1120.484994216751	1665.292232609573	474.8626911420043	1083.745948984464	1972.952751622768	650.9537396556985	1153.852324751682	1920.931867756177	677.2044643128364	1108.641101823786	2007.316741876772	754.0000415769903	1171.254587066305	1958.339132064398	779.4348579037155	1128.837017849937	
3941	26.26666666666667	2202.334426666182	1023.238962959247	873.4565089497574	2346.177566619002	27.97968753655558	948.203991368981	2365.474416726359	47.61050893348511	898.0497432079167	2335.714860458756	77.5776405230683	943.8385539890229	2155.754321595989	1101.4779374275	830.4924053574357	2549.343621724423	129.0197313266837	964.8697000303169	2517.019518568856	108.5571562836412	853.9350931959842	2048.243084464043	1085.357130822695	956.2110198439127	2365.273017811063	198.9879676239898	879.0068934829218	2325.598510418331	191.9365878953691	917.3654825610096	2336.469510357673	272.9546464062645	863.5690436206685	2298.847910708374	267.3642571967727	902.1250707895977	2284.047200932554	658.1776496404258	832.361130570132	2226.099619982688	625.5287976362235	862.0258740272837	2221.148865415244	747.2157085869445	815.352430492331	2167.230424604516	718.0615861885984	845.89820657924	2220.1382296939	1013.843523553475	1129.262454399807	1579.521688854298	248.6906375678894	1077.841855050862	1463.971278240191	403.2976456538447	1016.685589747375	1479.402774247782	396.8233228347506	1059.746559003311	1513.602137650972	410.3778922584244	1024.456787694009	2202.512841700748	1089.276805313007	1146.997238035993	1555.195845042937	196.3939588047819	1032.483399166463	1520.204777708866	241.4726019172103	1136.235531633091	2063.106190262242	1086.868608466443	1062.810621715615	1615.634898666416	404.6678866445884	1100.208481355359	1605.092813390285	438.8517572527687	1063.696101741125	1685.20598586685	449.5985193730607	1119.514875348269	1668.633635630629	484.9571207962517	1083.020767517963	1979.489339556414	645.6022754861956	1154.213635257412	1927.131909797791	671.0012367410516	1108.82829327403	2012.070815110644	749.1582169333968	1171.444996340769	1962.648369018965	773.809258787415	1129.041731698365	
3942	26.27333333333333	2202.029900295865	1019.25941368453	873.1317006188345	2346.11423455773	25.53199441122869	948.2393887994366	2365.93767029801	44.77028951304404	898.2582781831957	2336.437463529136	74.97592756681527	943.9870659346374	2155.856559267714	1097.673247114385	830.2917988360612	2549.388996687154	124.5201290314537	966.1602393110192	2517.671122156542	103.6169944625084	855.1613163448272	2048.244504044737	1082.033648431765	955.892805474679	2365.261462223388	194.3212025708093	879.1289014542272	2325.655248856738	186.8068088231649	917.5243496835084	2335.728700866677	268.0865241981943	863.8337339196314	2298.147493041439	262.034361687344	902.4104655112765	2282.331738611223	653.5235008962472	832.3366872009912	2224.077005124898	621.413556079743	862.1206868743913	2220.032914190156	742.8545745351328	814.6449360983244	2165.910018169837	714.2797363518067	845.4821386600898	2221.196509069252	1012.547260590265	1129.124648480291	1572.104245889193	264.4862948888649	1076.52822807747	1465.077210833328	425.0770871560755	1015.947313765478	1480.224496219584	417.6835739844941	1059.042752898028	1514.858611542982	429.3428460225771	1023.353970738336	2202.35392544452	1088.787874725162	1147.058116594838	1544.669656537183	213.8501696243887	1031.335658187812	1512.83633155061	260.6061272275736	1135.444500045134	2063.870581131652	1084.671833710391	1062.360637832348	1616.413381079042	417.1752975350612	1099.396890177702	1607.655929684892	452.2855327679746	1063.302994807023	1688.399829810879	457.933346260443	1118.814862394709	1673.78503620182	494.4894860507546	1082.694634998336	1986.581833608338	639.2126773589993	1154.571898410082	1933.977321503933	663.6186956666396	1108.827279590995	2017.084620264145	743.3373027675179	1171.605868104308	1967.313133587516	767.0659800332355	1129.055644391587	
